<svg width="2888" height="400" viewBox="0 0 2888 400" xmlns="http://www.w3.org/2000/svg" preserveAspectRatio="xMinYMid meet"><path d="M2884.5 140l-45.62.289v199.711h45.62v-200zm-22.605-28.21c14.301 0 25.895-11.594 25.895-25.895s-11.594-25.895-25.895-25.895-25.895 11.594-25.895 25.895 11.594 25.895 25.895 25.895zm-190.656 54.748c-9.244-21.544-27.676-32.538-57.324-32.538-28.608 0-48.02 15.76-59.018 33h-.537c-.813-7.146-2.653-27-2.653-27h-39.707v200h45.621v-105.185c0-31.843 19.132-57.145 42.142-58.875 23.762-1.787 33.113 11.008 33.113 43.529v120.531h45.621v-104.69l.001-.495c0-34.221 19.118-57.444 42.142-58.875 23.669-1.471 33.113 11.008 33.113 43.529v120.531h45.621v-129.932c0-50.176-19.084-76.068-64.582-76.068-27.55 0-50.273 14.697-63.553 32.538zm-198.739-26.538l-45.62.289v199.711h45.62v-200zm-22.605-28.21c14.301 0 25.895-11.594 25.895-25.895s-11.594-25.895-25.895-25.895-25.895 11.594-25.895 25.895 11.594 25.895 25.895 25.895zm-225.491 28.21c14.433 56.907 44.276 158.123 60.918 200h53.01c16.638-42.208 47.309-143.093 62.155-200h-47.835c-8.247 37.526-28.866 111.34-39.588 148.866h-.825c-11.134-37.113-31.753-110.928-39.588-148.866h-48.247zm-128.783 127.835c5.793-3.711 12.414-7.835 18.621-12.784l50.069 84.948h51.31l-67.448-114.227c24.828-24.33 45.103-52.784 62.069-85.773h-48.414c-16.966 30.103-40.966 58.144-66.207 79.588l-.001-159.588-45.62 5.289v274.711h45.62l.001-72.165zm-223.338-131.705c19.821-1.641 41.319-2.13 62.082-2.13 48.909 0 78.09 18.906 78.09 72.336v133.664h-41.021l-2.037-20.007h-.534c-14.066 15.156-34.498 24.007-60.665 24.007-34.658 0-62.198-22.447-62.198-66.93 0-41.371 34.497-79.892 120.834-61.569v-12.042c0-23.838-13.975-30.498-41.512-30.498-16.903 0-31.237 1.145-53.039 3.01v-39.841zm94.551 111.018c-36.579-9.305-73.158 2.127-73.158 30.401 0 18.754 12.446 29.773 31.003 28.948 14.625-.65 30.725-7.14 42.155-17.262v-42.087zm-311.915-187.148v45.282h73.116v234.718h49.852v-234.718h73.114v-45.282h-196.081zm-106.352 80v200h45.621v-100.07c0-25.107 19.153-52.777 60.88-60.93v-42c-28.654 1.58-53.25 20.46-63.346 35.202h-.411l-3.234-32.202h-39.51zm-219.217 101.025v-2.05c0-66.839 30.754-104.975 94.313-104.975 63.149 0 93.903 38.135 93.903 104.975v2.05c0 66.839-30.754 104.975-93.903 104.975-63.559 0-94.313-38.135-94.313-104.975zm94.207-69.025c-32.3 0-47.207 21.916-47.207 67.704s14.907 67.296 47.207 67.296 46.793-21.442 46.793-67.296c0-45.854-14.493-67.704-46.793-67.704zm-209.557-86.712v189.198c0 46.032 13.974 71.514 66.171 71.514 7.146 0 18.076-1.037 26.179-2.786v-37.636c-4.488 1.045-10.628 2.432-17.959 2.432-18.041 0-28.77-4.136-28.77-39.045v-91.965h46.729v-37h-46.729v-60l-45.621 5.288zm-144.379 182.548c5.793-3.711 12.414-7.835 18.621-12.784l50.069 84.948h51.31l-67.448-114.227c24.828-24.33 45.103-52.784 62.069-85.773h-48.414c-16.966 30.103-40.966 58.144-66.207 79.588l-.001-159.588-45.62 5.289v274.711h45.62l.001-72.165zm-267.621-26.81v-2.05c0-66.839 30.754-104.975 94.313-104.975 63.149 0 93.903 38.135 93.903 104.975v2.05c0 66.839-30.754 104.975-93.903 104.975-63.559 0-94.313-38.135-94.313-104.975zm94.207-69.025c-32.3 0-47.207 21.916-47.207 67.704s14.907 67.296 47.207 67.296 46.793-21.442 46.793-67.296c0-45.854-14.493-67.704-46.793-67.704zm-336.207 168v-280h70.326c97.996 0 143.601 29.43 143.601 140s-45.604 140-143.601 140h-70.326zm161.547-140c0-62.949-12.777-94.718-80.31-94.718h-31.302v189.436h31.302c67.533 0 80.31-31.769 80.31-94.718zm-488.616 123.285l66.006 76.715 65.796-47.805-64.236-106.279c-29.012 17.895-57.456 52.582-67.566 77.369zm-94.887 76.6c54.237-110.615 157.826-192.551 281.955-217.001l-25.225-77.703c-150.598 17.006-278.728 108.28-347.298 236.453l90.568 58.252zm19.765-263.806l-132.695-31.245-25.114 77.481 92.133 38.894c18.894-19.109 40.011-35.773 63.231-50.012 31.453-19.336 58.905-32.125 105.585-48.135l-10.336-123.062h-81.356l-11.448 136.078z" fill="#00C3A5"/></svg>
